<?xml version="1.0" encoding="UTF-8" standalone="no"?>
<svg
   xmlns:dc="http://purl.org/dc/elements/1.1/"
   xmlns:cc="http://creativecommons.org/ns#"
   xmlns:rdf="http://www.w3.org/1999/02/22-rdf-syntax-ns#"
   xmlns:svg="http://www.w3.org/2000/svg"
   xmlns="http://www.w3.org/2000/svg"
   xmlns:sodipodi="http://sodipodi.sourceforge.net/DTD/sodipodi-0.dtd"
   xmlns:inkscape="http://www.inkscape.org/namespaces/inkscape"
   version="1.0"
   width="150"
   height="150"
   id="svg2"
   inkscape:version="0.48.4 r9939"
   sodipodi:docname="placeholder.svg">
  <title
     id="title2989">placeholder</title>
  <metadata
     id="metadata12">
    <rdf:RDF>
      <cc:Work
         rdf:about="">
        <dc:format>image/svg+xml</dc:format>
        <dc:type
           rdf:resource="http://purl.org/dc/dcmitype/StillImage" />
        <dc:title>placeholder</dc:title>
      </cc:Work>
    </rdf:RDF>
  </metadata>
  <sodipodi:namedview
     pagecolor="#ffffff"
     bordercolor="#666666"
     borderopacity="1"
     objecttolerance="10"
     gridtolerance="10"
     guidetolerance="10"
     inkscape:pageopacity="0"
     inkscape:pageshadow="2"
     inkscape:window-width="640"
     inkscape:window-height="480"
     id="namedview10"
     showgrid="false"
     inkscape:zoom="1.5733333"
     inkscape:cx="75"
     inkscape:cy="75"
     inkscape:window-x="1123"
     inkscape:window-y="228"
     inkscape:window-maximized="0"
     inkscape:current-layer="svg2" />
  <defs
     id="defs5" />
  <path
     transform="matrix(0.927682,0,0,0.899448,7.883789,9.999466)"
     style="font-size:12;fill:#cccccc;fill-rule:evenodd;stroke-width:2.5;stroke-opacity:0.251;"
     d="M 104.3 51.9 C 101.7 78.5 91.9 97 71.7 97 C 51.5 97 42.2 80.4 39 52.6 C 36.4 27.7 51.5 6.4 71.7 6.4 C 91.9 6.4 106.7 27 104.3 51.9 z "
     id="path622" />
  <path
     d="M 92.6 89.6 C 90.8 93.5 89.4 102.5 94.9 106.9 C 103.9 114.3 106.7 116.5 118.3 118.9 C 144 124.4 141.6 138.2 146.5 149.2 L 4.3 149.1 C 8.5 138.7 6.5 124.8 32.4 118.4 C 41.8 116.1 45.7 113.9 53.6 107 C 58.5 102.7 57.5 94 56.4 89.3 C 52.5 88.8 94.2 88.1 92.6 89.6 z "
     style="fill:#ccc;fill-rule:evenodd;stroke:none;stroke-width:1px;stroke-linecap:butt;stroke-linejoin:miter;stroke-opacity:1"
     id="path1873" />
  <text
     xml:space="preserve"
     style="font-size:18px;font-style:normal;font-weight:normal;text-align:center;line-height:125%;letter-spacing:0px;word-spacing:0px;text-anchor:middle;fill:#000000;fill-opacity:1;stroke:none;font-family:Sans"
     x="73.824303"
     y="60.381355"
     id="text2985"
     linespacing="125%"><tspan
       role="line"
       id="tspan2987"
       x="73.824303"
       y="60.381355">Replace</tspan><tspan
       role="line"
       x="73.824303"
       y="82.881355"
       id="tspan2989">this</tspan><tspan
       role="line"
       x="73.824303"
       y="105.38136"
       id="tspan2991">image</tspan></text>
</svg>
